<svg width="1086" height="894" viewBox="0 0 1086 894" fill="none" xmlns="http://www.w3.org/2000/svg">
<path opacity="0.9" d="M1050.7 586.702C1046.43 613.194 1030.34 634.34 1004.42 649.773C978.491 665.213 942.873 674.826 899.992 678.282C814.241 685.193 699.974 667.439 577.564 623.257C455.154 579.074 348.03 516.918 273.793 452.261C236.67 419.928 207.885 387.069 189.494 355.63C171.112 324.207 163.22 294.405 167.482 267.913C171.744 241.421 187.833 220.274 213.753 204.842C239.686 189.402 275.305 179.788 318.185 176.332C403.937 169.421 518.204 187.175 640.614 231.358C763.023 275.541 870.147 337.696 944.384 402.354C981.507 434.686 1010.29 467.546 1028.68 498.984C1047.07 530.407 1054.96 560.21 1050.7 586.702Z" stroke="#CC3AFF" stroke-width="5.64314"/>
<path opacity="0.9" d="M887.456 219.942C901.73 278.623 869.238 357.474 803.329 438.128C737.587 518.577 639.306 599.864 524.056 662.759C408.805 725.654 298.648 758.116 213.763 759.867C128.662 761.623 69.9212 732.559 55.6475 673.878C41.3738 615.198 73.865 536.346 139.775 455.692C205.517 375.243 303.797 293.956 419.048 231.061C534.299 168.167 644.455 135.705 729.34 133.953C814.441 132.197 873.182 161.261 887.456 219.942Z" stroke="#85FF3A" stroke-width="5.64314"/>
<circle cx="407.737" cy="713.578" r="28.9229" fill="#FFC53A"/>
<circle cx="142.025" cy="453.571" r="17.0934" fill="#FFC53A"/>
<circle cx="619.201" cy="222.706" r="35.6953" fill="#FFC53A"/>
<path d="M868.229 645.722L869.474 646.558L869.474 646.558L868.229 645.722ZM634.766 218.907C712.786 251.869 804.203 308.916 859.398 382.484C886.981 419.25 905.475 460.083 908.795 504.062C912.114 548.02 900.284 595.261 866.983 644.886L869.474 646.558C903.101 596.446 915.162 548.547 911.787 503.836C908.413 459.145 889.628 417.778 861.797 380.684C806.164 306.531 714.215 249.217 635.933 216.143L634.766 218.907ZM866.983 644.886C802.904 740.379 712.76 771.263 627.475 771.617C542.119 771.97 461.699 741.728 417.434 715.052L415.886 717.622C460.543 744.534 541.496 774.973 627.488 774.617C713.55 774.26 804.729 743.043 869.474 646.558L866.983 644.886Z" fill="black"/>
<path d="M635.127 216.618C691.214 205.689 777.044 197.415 852.245 208.073C927.584 218.752 991.456 248.288 1005.07 312.273L1008 311.648C993.956 245.625 928.166 215.804 852.666 205.103C777.026 194.382 690.839 202.705 634.553 213.674L635.127 216.618ZM1005.07 312.273C1013.61 352.392 1001.75 398.243 973.817 444.358C945.895 490.454 901.992 536.671 846.724 577.426C736.185 658.939 580.401 718.45 416.723 711.551L416.597 714.548C581.051 721.48 737.494 661.701 848.505 579.84C904.012 538.908 948.215 492.416 976.383 445.912C1004.54 399.426 1016.76 352.784 1008 311.648L1005.07 312.273Z" fill="black"/>
<circle cx="633.539" cy="216.128" r="11.0548" fill="#FEFEFE"/>
<circle cx="412.994" cy="711.927" r="11.0548" fill="#FEFEFE"/>
</svg>
