<svg width="100%" height="100%" viewBox="0 0 1160 571" fill="none" xmlns="http://www.w3.org/2000/svg">
<rect x="962.947" y="478.677" width="34.429" height="34.429" transform="rotate(-18.5037 962.947 478.677)" fill="#CC3AFF"/>
<path d="M979.221 502.181L967.834 506.021L956.447 509.861L963.73 500.989" stroke="#CC3AFF" stroke-width="2.82157"/>
<path d="M991.014 478.295L1002.44 474.579L1013.87 470.862L1006.49 479.654" stroke="#CC3AFF" stroke-width="2.82157"/>
<path opacity="0.9" d="M1121.47 478.974C1119.58 483.775 1114.81 487.855 1106.38 490.828C1097.97 493.793 1086.41 495.465 1071.91 495.782C1042.93 496.415 1003.03 491.63 954.952 481.907C858.851 462.472 730.736 423.441 593.428 369.398C456.119 315.354 335.771 256.591 252.204 205.31C210.396 179.655 177.938 155.959 157.168 135.748C146.773 125.631 139.456 116.531 135.322 108.628C131.174 100.701 130.468 94.4678 132.357 89.6668C134.247 84.8659 139.012 80.7866 147.45 77.8128C155.862 74.8483 167.418 73.1762 181.921 72.8592C210.894 72.226 250.797 77.0107 298.875 86.734C394.976 106.17 523.091 145.2 660.399 199.243C797.708 253.287 918.056 312.05 1001.62 363.331C1043.43 388.986 1075.89 412.682 1096.66 432.894C1107.05 443.01 1114.37 452.11 1118.51 460.013C1122.65 467.94 1123.36 474.173 1121.47 478.974Z" stroke="#CC3AFF" stroke-width="6.74052"/>
<path opacity="0.9" d="M1058.39 222.322C1059.63 227.331 1058.11 233.415 1052.95 240.725C1047.8 248.012 1039.35 256.066 1027.71 264.721C1004.45 282.011 969.145 301.21 924.315 321.117C834.704 360.906 707.647 403.252 564.402 438.68C421.157 474.107 289.008 495.868 191.181 502.435C142.24 505.721 102.056 505.191 73.4195 500.736C59.0863 498.505 47.852 495.321 39.9057 491.271C31.9347 487.208 27.7502 482.535 26.5115 477.527C25.2728 472.518 26.7966 466.433 31.955 459.123C37.0974 451.836 45.5522 443.782 57.1934 435.128C80.4512 417.838 115.756 398.638 160.587 378.732C250.197 338.942 377.254 296.596 520.5 261.169C663.745 225.741 795.893 203.981 893.72 197.413C942.662 194.128 982.846 194.657 1011.48 199.113C1025.82 201.343 1037.05 204.528 1045 208.578C1052.97 212.64 1057.15 217.313 1058.39 222.322Z" stroke="#91FF4E" stroke-width="6.74052"/>
<circle cx="283.09" cy="225.5" r="19.9292" transform="rotate(-11.4687 283.09 225.5)" fill="#FFC53A"/>
<path d="M279.517 202.916L276.461 187.856" stroke="#FFC53A" stroke-width="4.04431"/>
<path d="M306.35 220.781L321.41 217.725" stroke="#FFC53A" stroke-width="4.04431"/>
<path d="M244.991 233.23L260.051 230.174" stroke="#FFC53A" stroke-width="4.04431"/>
<path d="M249.37 203.162L261.642 212.413" stroke="#FFC53A" stroke-width="4.04431"/>
<path d="M305.989 238.147L318.261 247.398" stroke="#FFC53A" stroke-width="4.04431"/>
<path d="M292.036 264.636L288.981 249.575" stroke="#FFC53A" stroke-width="4.04431"/>
</svg>
